<svg width="120" height="40" viewBox="0 0 120 40" fill="none" xmlns="http://www.w3.org/2000/svg">
<path d="M6.24 30.7143H3.168V8.31429H6.24C9.312 8.31429 11.9147 9.44496 14.048 11.7063C16.1813 13.9676 17.248 16.5703 17.248 19.5143C17.248 22.4583 16.1813 25.061 14.048 27.3223C11.9147 29.5836 9.312 30.7143 6.24 30.7143ZM6.24 29.7543C9.03467 29.7543 11.4027 28.7303 13.344 26.6823C15.3067 24.613 16.288 22.2236 16.288 19.5143C16.288 16.805 15.3067 14.4263 13.344 12.3783C11.4027 10.309 9.03467 9.27429 6.24 9.27429H4.128V29.7543H6.24ZM31.3528 13.1463C30.6274 12.9116 29.7314 12.7943 28.6648 12.7943C27.5981 12.7943 26.7021 12.9116 25.9768 13.1463C25.2514 13.3596 24.5794 13.7756 23.9608 14.3943C23.3634 14.9916 22.9154 15.877 22.6168 17.0503C22.3181 18.2023 22.1688 19.6636 22.1688 21.4343C22.1688 23.205 22.3181 24.677 22.6168 25.8503C22.9154 27.0023 23.3634 27.8876 23.9608 28.5063C24.5794 29.1036 25.2514 29.5196 25.9768 29.7543C26.7021 29.9676 27.5981 30.0743 28.6648 30.0743C29.7314 30.0743 30.6274 29.9676 31.3528 29.7543C32.0781 29.5196 32.7394 29.1036 33.3368 28.5063C33.9554 27.8876 34.4141 27.0023 34.7128 25.8503C35.0114 24.677 35.1608 23.205 35.1608 21.4343C35.1608 19.6636 35.0114 18.2023 34.7128 17.0503C34.4141 15.877 33.9554 14.9916 33.3368 14.3943C32.7394 13.7756 32.0781 13.3596 31.3528 13.1463ZM34.3928 28.7623C33.2408 30.277 31.3314 31.0343 28.6648 31.0343C25.9981 31.0343 24.0888 30.277 22.9368 28.7623C21.7848 27.2476 21.2088 24.805 21.2088 21.4343C21.2088 18.0636 21.7848 15.621 22.9368 14.1063C24.0888 12.5916 25.9981 11.8343 28.6648 11.8343C31.3314 11.8343 33.2408 12.5916 34.3928 14.1063C35.5448 15.621 36.1208 18.0636 36.1208 21.4343C36.1208 24.805 35.5448 27.2476 34.3928 28.7623ZM46.311 11.7703C48.9563 11.7703 50.8337 12.357 51.943 13.5303L51.303 14.2343C50.279 13.2316 48.6577 12.7303 46.439 12.7303C43.111 12.7303 41.447 14.053 41.447 16.6983C41.447 17.7223 41.8523 18.5436 42.663 19.1623C43.4737 19.7596 44.455 20.2183 45.607 20.5383C46.7803 20.8583 47.943 21.1996 49.095 21.5623C50.2683 21.9036 51.2603 22.469 52.071 23.2583C52.8817 24.0263 53.287 25.0396 53.287 26.2983C53.287 27.7703 52.679 28.9436 51.463 29.8183C50.247 30.693 48.487 31.1303 46.183 31.1303C45.0523 31.1303 43.9323 30.981 42.823 30.6823C41.735 30.3836 40.9243 29.9463 40.391 29.3703L41.031 28.6663C42.119 29.669 43.7937 30.1703 46.055 30.1703C48.1243 30.1703 49.6817 29.7863 50.727 29.0183C51.7937 28.2503 52.327 27.3543 52.327 26.3303C52.327 25.2636 51.9217 24.3996 51.111 23.7383C50.3003 23.077 49.3083 22.5863 48.135 22.2663C46.983 21.925 45.8203 21.5836 44.647 21.2423C43.495 20.8796 42.5137 20.325 41.703 19.5783C40.8923 18.8316 40.487 17.8503 40.487 16.6343C40.487 14.9916 41.031 13.7756 42.119 12.9863C43.2283 12.1756 44.6257 11.7703 46.311 11.7703Z" fill="white"/>
<path d="M106.488 30.7619V12.2019H107.448V30.7619H106.488ZM118.328 30.7619L108.472 20.9699L117.304 12.2019H118.68L109.848 20.9699L119.704 30.7619H118.328Z" fill="white"/>
<path d="M100.601 19.0476C100.601 16.514 100.077 14.1332 99.0292 11.9053C97.9811 9.67728 96.5606 7.73789 94.7675 6.0871C92.9744 4.4363 90.8678 3.12848 88.4477 2.16361C86.0277 1.19875 83.4417 0.716321 80.6897 0.716321V0C83.5426 0 86.2239 0.500447 88.7335 1.50134C91.2429 2.50202 93.4344 3.86477 95.3079 5.58958C97.1814 7.31439 98.6616 9.33192 99.7485 11.6422C100.836 13.9526 101.379 16.4211 101.379 19.0476H100.601Z" fill="white"/>
<path d="M76.5517 0.716309C73.7997 0.716309 71.2137 1.19874 68.7936 2.1636C66.3736 3.12847 64.267 4.43629 62.4739 6.08709C60.6808 7.73788 59.2602 9.67726 58.2122 11.9052C57.1642 14.1332 56.6401 16.514 56.6401 19.0476H55.8621C55.8621 16.4211 56.4057 13.9526 57.4928 11.6422C58.5798 9.33191 60.06 7.31438 61.9335 5.58957C63.807 3.86476 65.9985 2.50201 68.5079 1.50133C71.0175 0.500436 73.6988 -1.12168e-05 76.5517 -1.12168e-05V0.716309Z" fill="white"/>
<path d="M80.6897 39.2837C83.4417 39.2837 86.0277 38.8013 88.4477 37.8364C90.8678 36.8715 92.9744 35.5637 94.7675 33.9129C96.5606 32.2621 97.9811 30.3227 99.0292 28.0948C100.077 25.8668 100.601 23.486 100.601 20.9524H101.379C101.379 23.5789 100.836 26.0474 99.7485 28.3578C98.6616 30.6681 97.1814 32.6856 95.3079 34.4104C93.4344 36.1352 91.2429 37.498 88.7335 38.4987C86.2239 39.4996 83.5426 40 80.6897 40V39.2837Z" fill="white"/>
<path d="M56.6401 20.9524C56.6401 23.486 57.1642 25.8668 58.2122 28.0947C59.2602 30.3227 60.6808 32.2621 62.4739 33.9129C64.267 35.5637 66.3736 36.8715 68.7936 37.8364C71.2137 38.8012 73.7997 39.2837 76.5517 39.2837V40C73.6988 40 71.0175 39.4996 68.5079 38.4987C65.9985 37.498 63.807 36.1352 61.9335 34.4104C60.06 32.6856 58.5798 30.6681 57.4928 28.3578C56.4057 26.0474 55.8621 23.5789 55.8621 20.9524H56.6401Z" fill="white"/>
<path d="M73.8312 5.25715H74.4312V16.8571H73.8312V5.25715ZM84.9058 16.2571V16.8571H78.2258V5.25715H78.8258V16.2571H84.9058ZM70.3627 22.8571H78.4627L73.4627 30.8571V36.8571H72.8627V30.8571L67.8627 22.8571H68.5627L73.1627 30.1971L77.3827 23.4571H70.3627V22.8571ZM80.9607 36.2571H88.3207L84.0807 24.5971L79.6207 36.8571H78.9807L84.0807 22.8371L89.1807 36.8571H80.9607V36.2571Z" fill="white"/>
</svg>
